<?xml version="1.0" encoding="UTF-8"?>
<svg fill="none" viewBox="0 0 128 60" xmlns="http://www.w3.org/2000/svg">
<g filter="url(#a)">
<rect x="14" y="11" width="100" height="32" rx="16" fill="#2BE080"/>
</g>
<path d="m26.837 31.5h-1.5142l3.4023-9.4545h1.6481l3.4023 9.4545h-1.5142l-2.6729-7.7372h-0.0739l-2.6775 7.7372zm0.2539-3.7024h4.9119v1.2003h-4.9119v-1.2003zm7.9392 3.7024v-7.0909h1.3803v2.973h0.6648l2.3405-2.973h1.7081l-2.7468 3.4485 2.7791 3.6424h-1.7127l-2.1374-2.8345h-0.8956v2.8345h-1.3803zm7.1982 0v-7.0909h1.3803v2.973h0.6648l2.3405-2.973h1.7081l-2.7468 3.4485 2.7792 3.6424h-1.7128l-2.1374-2.8345h-0.8956v2.8345h-1.3803zm9.2618 0.157c-0.4493 0-0.8556-0.0831-1.2187-0.2493-0.3632-0.1693-0.651-0.414-0.8633-0.734-0.2093-0.3201-0.314-0.7125-0.314-1.1773 0-0.4 0.077-0.7294 0.2309-0.9879s0.3616-0.4632 0.6232-0.614 0.554-0.2646 0.8771-0.3416c0.3232-0.0769 0.6525-0.1354 0.988-0.1754 0.4247-0.0493 0.7694-0.0893 1.034-0.12 0.2647-0.0339 0.4571-0.0878 0.5771-0.1616 0.12-0.0739 0.18-0.1939 0.18-0.3601v-0.0323c0-0.4032-0.1138-0.7156-0.3416-0.9372-0.2246-0.2216-0.5601-0.3324-1.0064-0.3324-0.4647 0-0.8309 0.1031-1.0987 0.3094-0.2647 0.2031-0.4478 0.4293-0.5493 0.6786l-1.2973-0.2955c0.1539-0.4309 0.3786-0.7786 0.674-1.0433 0.2986-0.2678 0.6417-0.4617 1.0295-0.5817 0.3878-0.1231 0.7956-0.1846 1.2234-0.1846 0.2831 0 0.5832 0.0338 0.9002 0.1015 0.3201 0.0647 0.6186 0.1847 0.8956 0.3601 0.28 0.1754 0.5093 0.4263 0.6878 0.7525 0.1785 0.3231 0.2678 0.7432 0.2678 1.2603v4.7088h-1.348v-0.9695h-0.0554c-0.0893 0.1785-0.2231 0.354-0.4017 0.5263-0.1785 0.1724-0.4077 0.3155-0.6878 0.4294-0.2801 0.1138-0.6155 0.1708-1.0064 0.1708zm0.3001-1.108c0.3816 0 0.7078-0.0754 0.9787-0.2262 0.2739-0.1508 0.4816-0.3478 0.6232-0.5909 0.1446-0.2462 0.217-0.5094 0.217-0.7894v-0.9141c-0.0493 0.0493-0.1447 0.0954-0.2863 0.1385-0.1385 0.04-0.297 0.0754-0.4755 0.1062-0.1785 0.0277-0.3523 0.0538-0.5216 0.0785-0.1693 0.0215-0.3109 0.04-0.4247 0.0554-0.2678 0.0338-0.5125 0.0908-0.7341 0.1708-0.2185 0.08-0.3939 0.1954-0.5262 0.3462-0.1293 0.1477-0.1939 0.3447-0.1939 0.5909 0 0.3416 0.1262 0.6002 0.3785 0.7756 0.2524 0.1723 0.574 0.2585 0.9649 0.2585zm5.6563 3.6101c-0.2062 0-0.3939-0.0169-0.5632-0.0508-0.1693-0.0308-0.2955-0.0646-0.3786-0.1016l0.3324-1.131c0.2524 0.0677 0.4771 0.097 0.674 0.0877 0.197-0.0092 0.3709-0.0831 0.5217-0.2216 0.1539-0.1385 0.2893-0.3647 0.4063-0.6786l0.1708-0.4709-2.5945-7.1832h1.4773l1.7958 5.5028h0.0738l1.7959-5.5028h1.4818l-2.9222 8.0373c-0.1354 0.3693-0.3077 0.6817-0.517 0.9371-0.2093 0.2585-0.4586 0.4524-0.7479 0.5817s-0.6248 0.1939-1.0064 0.1939zm11.296-6.8001v1.1957h-3.8409v-1.1957h3.8409zm-3.4531-2.9499v7.0909h-1.3526v-7.0909h1.3526zm4.418 0v7.0909h-1.348v-7.0909h1.348zm0.9671 1.191v-1.191h5.983v1.191h-2.3129v5.8999h-1.348v-5.8999h-2.3221z" fill="#000"/>
<rect x="85" y="14" width="26" height="26" rx="13" fill="#F9F9F9"/>
<path d="m99.43 28.968c1.3623-0.5621 2.3203-1.903 2.3203-3.4678 0-2.0711-1.679-3.75-3.75-3.75-2.0711 0-3.75 1.6789-3.75 3.75 0 1.5647 0.9583 2.9056 2.3201 3.4677-1.3947 0.2322-2.6776 0.7982-3.7619 1.6129l1.3816 1.8388c1.0613-0.7973 2.3788-1.2694 3.8099-1.2694 1.4312 0 2.7483 0.4721 3.8103 1.2694l1.381-1.8388c-1.084-0.8146-2.367-1.3806-3.7613-1.6128z" clip-rule="evenodd" fill="#000" fill-rule="evenodd"/>
<defs>
<filter id="a" x="0" y="0" width="128" height="60" color-interpolation-filters="sRGB" filterUnits="userSpaceOnUse">
<feFlood flood-opacity="0" result="BackgroundImageFix"/>
<feColorMatrix in="SourceAlpha" result="hardAlpha" values="0 0 0 0 0 0 0 0 0 0 0 0 0 0 0 0 0 0 127 0"/>
<feOffset dy="3"/>
<feGaussianBlur stdDeviation="7"/>
<feColorMatrix values="0 0 0 0 0 0 0 0 0 0 0 0 0 0 0 0 0 0 0.08 0"/>
<feBlend in2="BackgroundImageFix" result="effect1_dropShadow_68508_32"/>
<feBlend in="SourceGraphic" in2="effect1_dropShadow_68508_32" result="shape"/>
</filter>
</defs>
</svg>
